<svg width="324" height="36" viewBox="0 0 324 36" fill="none" xmlns="http://www.w3.org/2000/svg">
<mask id="path-1-inside-1_6266_1967" fill="white">
<path d="M0 18C0 8.05887 8.05887 0 18 0H306C315.941 0 324 8.05887 324 18V18C324 27.9411 315.941 36 306 36H18C8.05888 36 0 27.9411 0 18V18Z"/>
</mask>
<g clip-path="url(#paint0_angular_6266_1967_clip_path)" data-figma-skip-parse="true" mask="url(#path-1-inside-1_6266_1967)"><g transform="matrix(0.218348 0 0 0.0558 162 18)"><foreignObject x="-746.515" y="-746.515" width="1493.03" height="1493.03"><div xmlns="http://www.w3.org/1999/xhtml" style="background:conic-gradient(from 90deg,rgba(255, 255, 255, 0.5) 0deg,rgba(255, 255, 255, 0) 60deg,rgba(255, 255, 255, 0) 301.875deg,rgba(255, 255, 255, 0.5) 360deg);height:100%;width:100%;opacity:1"></div></foreignObject></g></g><path d="M0 18M324 18M324 18M0 18M18 0V1H306V0V-1H18V0ZM324 18M306 36V35H18V36V37H306V36ZM0 18M18 36V35C8.61117 35 1 27.3888 1 18H0H-1C-1 28.4934 7.5066 37 18 37V36ZM324 18H323C323 27.3888 315.389 35 306 35V36V37C316.493 37 325 28.4934 325 18H324ZM306 0V1C315.389 1 323 8.61116 323 18H324H325C325 7.50659 316.493 -1 306 -1V0ZM18 0V-1C7.50659 -1 -1 7.50659 -1 18H0H1C1 8.61116 8.61116 1 18 1V0Z" data-figma-gradient-fill="{&#34;type&#34;:&#34;GRADIENT_ANGULAR&#34;,&#34;stops&#34;:[{&#34;color&#34;:{&#34;r&#34;:1.0,&#34;g&#34;:1.0,&#34;b&#34;:1.0,&#34;a&#34;:0.0},&#34;position&#34;:0.16666667163372040},{&#34;color&#34;:{&#34;r&#34;:1.0,&#34;g&#34;:1.0,&#34;b&#34;:1.0,&#34;a&#34;:0.0},&#34;position&#34;:0.83854168653488159},{&#34;color&#34;:{&#34;r&#34;:1.0,&#34;g&#34;:1.0,&#34;b&#34;:1.0,&#34;a&#34;:0.50},&#34;position&#34;:1.0}],&#34;stopsVar&#34;:[],&#34;transform&#34;:{&#34;m00&#34;:436.69567871093750,&#34;m01&#34;:-5.3729486138021088e-12,&#34;m02&#34;:-56.347843170166016,&#34;m10&#34;:1.3493644136081118e-13,&#34;m11&#34;:111.60000610351562,&#34;m12&#34;:-37.799999237060547},&#34;opacity&#34;:1.0,&#34;blendMode&#34;:&#34;NORMAL&#34;,&#34;visible&#34;:true}" mask="url(#path-1-inside-1_6266_1967)"/>
<mask id="mask0_6266_1967" style="mask-type:alpha" maskUnits="userSpaceOnUse" x="-12" y="-12" width="348" height="60">
<g clip-path="url(#paint1_angular_6266_1967_clip_path)" data-figma-skip-parse="true"><g transform="matrix(0.218348 0 0 0.0558 162 18)"><foreignObject x="-851.852" y="-851.852" width="1703.7" height="1703.7"><div xmlns="http://www.w3.org/1999/xhtml" style="background:conic-gradient(from 90deg,rgba(255, 255, 255, 0.5) 0deg,rgba(255, 255, 255, 0) 60deg,rgba(255, 255, 255, 0) 301.875deg,rgba(255, 255, 255, 0.5) 360deg);height:100%;width:100%;opacity:1"></div></foreignObject></g></g><path d="M0 18M324 18M324 18M0 18M18 0V12H306V0V-12H18V0ZM324 18M306 36V24H18V36V48H306V36ZM0 18M18 36V24C14.6863 24 12 21.3137 12 18H0H-12C-12 34.5686 1.43147 48 18 48V36ZM324 18H312C312 21.3137 309.314 24 306 24V36V48C322.569 48 336 34.5685 336 18H324ZM306 0V12C309.314 12 312 14.6863 312 18H324H336C336 1.43145 322.569 -12 306 -12V0ZM18 0V-12C1.43146 -12 -12 1.43146 -12 18H0H12C12 14.6863 14.6863 12 18 12V0Z" data-figma-gradient-fill="{&#34;type&#34;:&#34;GRADIENT_ANGULAR&#34;,&#34;stops&#34;:[{&#34;color&#34;:{&#34;r&#34;:1.0,&#34;g&#34;:1.0,&#34;b&#34;:1.0,&#34;a&#34;:0.0},&#34;position&#34;:0.16666667163372040},{&#34;color&#34;:{&#34;r&#34;:1.0,&#34;g&#34;:1.0,&#34;b&#34;:1.0,&#34;a&#34;:0.0},&#34;position&#34;:0.83854168653488159},{&#34;color&#34;:{&#34;r&#34;:1.0,&#34;g&#34;:1.0,&#34;b&#34;:1.0,&#34;a&#34;:0.50},&#34;position&#34;:1.0}],&#34;stopsVar&#34;:[],&#34;transform&#34;:{&#34;m00&#34;:436.69567871093750,&#34;m01&#34;:-5.3729486138021088e-12,&#34;m02&#34;:-56.347843170166016,&#34;m10&#34;:1.3493644136081118e-13,&#34;m11&#34;:111.60000610351562,&#34;m12&#34;:-37.799999237060547},&#34;opacity&#34;:1.0,&#34;blendMode&#34;:&#34;NORMAL&#34;,&#34;visible&#34;:true}"/>
</mask>
<g mask="url(#mask0_6266_1967)">
</g>
<defs>
<clipPath id="paint0_angular_6266_1967_clip_path"><path d="M0 18M324 18M324 18M0 18M18 0V1H306V0V-1H18V0ZM324 18M306 36V35H18V36V37H306V36ZM0 18M18 36V35C8.61117 35 1 27.3888 1 18H0H-1C-1 28.4934 7.5066 37 18 37V36ZM324 18H323C323 27.3888 315.389 35 306 35V36V37C316.493 37 325 28.4934 325 18H324ZM306 0V1C315.389 1 323 8.61116 323 18H324H325C325 7.50659 316.493 -1 306 -1V0ZM18 0V-1C7.50659 -1 -1 7.50659 -1 18H0H1C1 8.61116 8.61116 1 18 1V0Z"/></clipPath><clipPath id="paint1_angular_6266_1967_clip_path"><path d="M0 18M324 18M324 18M0 18M18 0V12H306V0V-12H18V0ZM324 18M306 36V24H18V36V48H306V36ZM0 18M18 36V24C14.6863 24 12 21.3137 12 18H0H-12C-12 34.5686 1.43147 48 18 48V36ZM324 18H312C312 21.3137 309.314 24 306 24V36V48C322.569 48 336 34.5685 336 18H324ZM306 0V12C309.314 12 312 14.6863 312 18H324H336C336 1.43145 322.569 -12 306 -12V0ZM18 0V-12C1.43146 -12 -12 1.43146 -12 18H0H12C12 14.6863 14.6863 12 18 12V0Z"/></clipPath></defs>
</svg>
