<svg width="336" height="48" viewBox="0 0 336 48" fill="none" xmlns="http://www.w3.org/2000/svg">
<g filter="url(#filter0_f_6245_32)">
<mask id="path-1-inside-1_6245_32" fill="white">
<path d="M6 24C6 14.0589 14.0589 6 24 6H312C321.941 6 330 14.0589 330 24V24C330 33.9411 321.941 42 312 42H24C14.0589 42 6 33.9411 6 24V24Z"/>
</mask>
<g clip-path="url(#paint0_angular_6245_32_clip_path)" data-figma-skip-parse="true" mask="url(#path-1-inside-1_6245_32)"><g transform="matrix(0.218348 0 0 0.0558 168 24)"><foreignObject x="-751.095" y="-751.095" width="1502.19" height="1502.19"><div xmlns="http://www.w3.org/1999/xhtml" style="background:conic-gradient(from 90deg,rgba(255, 255, 255, 0.5) 0deg,rgba(255, 255, 255, 0) 60deg,rgba(255, 255, 255, 0) 301.875deg,rgba(255, 255, 255, 0.5) 360deg);height:100%;width:100%;opacity:1"></div></foreignObject></g></g><path d="M6 24M330 24M330 24M6 24M24 6V8H312V6V4H24V6ZM330 24M312 42V40H24V42V44H312V42ZM6 24M24 42V40C15.1635 40 8 32.8366 8 24H6H4C4 35.0457 12.9543 44 24 44V42ZM330 24H328C328 32.8366 320.837 40 312 40V42V44C323.046 44 332 35.0457 332 24H330ZM312 6V8C320.837 8 328 15.1634 328 24H330H332C332 12.9543 323.046 4 312 4V6ZM24 6V4C12.9543 4 4 12.9543 4 24H6H8C8 15.1634 15.1634 8 24 8V6Z" data-figma-gradient-fill="{&#34;type&#34;:&#34;GRADIENT_ANGULAR&#34;,&#34;stops&#34;:[{&#34;color&#34;:{&#34;r&#34;:1.0,&#34;g&#34;:1.0,&#34;b&#34;:1.0,&#34;a&#34;:0.0},&#34;position&#34;:0.16666667163372040},{&#34;color&#34;:{&#34;r&#34;:1.0,&#34;g&#34;:1.0,&#34;b&#34;:1.0,&#34;a&#34;:0.0},&#34;position&#34;:0.83854168653488159},{&#34;color&#34;:{&#34;r&#34;:1.0,&#34;g&#34;:1.0,&#34;b&#34;:1.0,&#34;a&#34;:0.50},&#34;position&#34;:1.0}],&#34;stopsVar&#34;:[],&#34;transform&#34;:{&#34;m00&#34;:436.69567871093750,&#34;m01&#34;:-5.3729486138021088e-12,&#34;m02&#34;:-50.347843170166016,&#34;m10&#34;:1.3493644136081118e-13,&#34;m11&#34;:111.60000610351562,&#34;m12&#34;:-31.799999237060547},&#34;opacity&#34;:1.0,&#34;blendMode&#34;:&#34;NORMAL&#34;,&#34;visible&#34;:true}" mask="url(#path-1-inside-1_6245_32)"/>
<g clip-path="url(#paint1_angular_6245_32_clip_path)" data-figma-skip-parse="true" mask="url(#path-1-inside-1_6245_32)"><g transform="matrix(0.218348 0 0 0.0558 168 24)"><foreignObject x="-751.095" y="-751.095" width="1502.19" height="1502.19"><div xmlns="http://www.w3.org/1999/xhtml" style="background:conic-gradient(from 90deg,rgba(255, 255, 255, 0.5) 0deg,rgba(255, 255, 255, 0) 60deg,rgba(255, 255, 255, 0) 301.875deg,rgba(255, 255, 255, 0.5) 360deg);height:100%;width:100%;opacity:1"></div></foreignObject></g></g><path d="M6 24M330 24M330 24M6 24M24 6V8H312V6V4H24V6ZM330 24M312 42V40H24V42V44H312V42ZM6 24M24 42V40C15.1635 40 8 32.8366 8 24H6H4C4 35.0457 12.9543 44 24 44V42ZM330 24H328C328 32.8366 320.837 40 312 40V42V44C323.046 44 332 35.0457 332 24H330ZM312 6V8C320.837 8 328 15.1634 328 24H330H332C332 12.9543 323.046 4 312 4V6ZM24 6V4C12.9543 4 4 12.9543 4 24H6H8C8 15.1634 15.1634 8 24 8V6Z" data-figma-gradient-fill="{&#34;type&#34;:&#34;GRADIENT_ANGULAR&#34;,&#34;stops&#34;:[{&#34;color&#34;:{&#34;r&#34;:1.0,&#34;g&#34;:1.0,&#34;b&#34;:1.0,&#34;a&#34;:0.0},&#34;position&#34;:0.16666667163372040},{&#34;color&#34;:{&#34;r&#34;:1.0,&#34;g&#34;:1.0,&#34;b&#34;:1.0,&#34;a&#34;:0.0},&#34;position&#34;:0.83854168653488159},{&#34;color&#34;:{&#34;r&#34;:1.0,&#34;g&#34;:1.0,&#34;b&#34;:1.0,&#34;a&#34;:0.50},&#34;position&#34;:1.0}],&#34;stopsVar&#34;:[],&#34;transform&#34;:{&#34;m00&#34;:436.69567871093750,&#34;m01&#34;:-5.3729486138021088e-12,&#34;m02&#34;:-50.347843170166016,&#34;m10&#34;:1.3493644136081118e-13,&#34;m11&#34;:111.60000610351562,&#34;m12&#34;:-31.799999237060547},&#34;opacity&#34;:1.0,&#34;blendMode&#34;:&#34;NORMAL&#34;,&#34;visible&#34;:true}" mask="url(#path-1-inside-1_6245_32)"/>
</g>
<defs>
<filter id="filter0_f_6245_32" x="0" y="0" width="336" height="48" filterUnits="userSpaceOnUse" color-interpolation-filters="sRGB">
<feFlood flood-opacity="0" result="BackgroundImageFix"/>
<feBlend mode="normal" in="SourceGraphic" in2="BackgroundImageFix" result="shape"/>
<feGaussianBlur stdDeviation="3" result="effect1_foregroundBlur_6245_32"/>
</filter>
<clipPath id="paint0_angular_6245_32_clip_path"><path d="M6 24M330 24M330 24M6 24M24 6V8H312V6V4H24V6ZM330 24M312 42V40H24V42V44H312V42ZM6 24M24 42V40C15.1635 40 8 32.8366 8 24H6H4C4 35.0457 12.9543 44 24 44V42ZM330 24H328C328 32.8366 320.837 40 312 40V42V44C323.046 44 332 35.0457 332 24H330ZM312 6V8C320.837 8 328 15.1634 328 24H330H332C332 12.9543 323.046 4 312 4V6ZM24 6V4C12.9543 4 4 12.9543 4 24H6H8C8 15.1634 15.1634 8 24 8V6Z"/></clipPath><clipPath id="paint1_angular_6245_32_clip_path"><path d="M6 24M330 24M330 24M6 24M24 6V8H312V6V4H24V6ZM330 24M312 42V40H24V42V44H312V42ZM6 24M24 42V40C15.1635 40 8 32.8366 8 24H6H4C4 35.0457 12.9543 44 24 44V42ZM330 24H328C328 32.8366 320.837 40 312 40V42V44C323.046 44 332 35.0457 332 24H330ZM312 6V8C320.837 8 328 15.1634 328 24H330H332C332 12.9543 323.046 4 312 4V6ZM24 6V4C12.9543 4 4 12.9543 4 24H6H8C8 15.1634 15.1634 8 24 8V6Z"/></clipPath></defs>
</svg>
